<svg width="220" height="54" viewBox="0 0 220 54" fill="none" xmlns="http://www.w3.org/2000/svg">
<rect width="220" height="54" rx="10" fill="white"/>
<path d="M56.386 28.0812C56.403 26.778 56.7534 25.5002 57.4045 24.3667C58.0557 23.2333 58.9865 22.2809 60.1104 21.5984C59.3964 20.591 58.4546 19.7621 57.3596 19.1772C56.2646 18.5924 55.0467 18.2679 53.8026 18.2295C52.1792 18.0611 50.5862 18.6857 49.2842 19.1962C48.4577 19.5203 47.7485 19.7984 47.2233 19.7984C46.6259 19.7984 45.8964 19.5089 45.0789 19.1845C44.01 18.7603 42.7908 18.2765 41.5203 18.3024C40.07 18.3486 38.6565 18.7653 37.4176 19.5117C36.1788 20.2581 35.1567 21.3089 34.4511 22.5615C31.3946 27.7896 33.6745 35.4731 36.6024 39.6991C38.0673 41.7684 39.7794 44.0799 42.0196 43.998C43.0358 43.9563 43.7569 43.6565 44.5017 43.3468C45.3635 42.9885 46.2571 42.617 47.6766 42.617C49.015 42.617 49.8704 42.9769 50.6912 43.3224C51.4781 43.6535 52.2333 43.9713 53.352 43.9458C55.7043 43.9081 57.1864 41.8673 58.5999 39.7784C59.6524 38.3039 60.4624 36.6743 60.9997 34.9499C59.633 34.3788 58.4668 33.423 57.6464 32.2016C56.8259 30.9801 56.3876 29.5471 56.386 28.0812Z" fill="black"/>
<path d="M52.0689 15.4501C53.3515 13.929 53.9833 11.9739 53.8303 10C51.8708 10.2033 50.0608 11.1285 48.7609 12.5912C48.1254 13.3058 47.6386 14.1371 47.3284 15.0377C47.0183 15.9382 46.8908 16.8903 46.9534 17.8396C47.9335 17.8495 48.9031 17.6397 49.7891 17.2258C50.6752 16.8119 51.4547 16.2048 52.0689 15.4501Z" fill="black"/>
<path d="M81.5632 12.7658H82.4609C82.6154 12.7834 82.7722 12.7715 82.9215 12.7309C83.0708 12.6902 83.2092 12.6217 83.3281 12.5296C83.447 12.4374 83.5438 12.3238 83.6124 12.1957C83.681 12.0676 83.7199 11.9278 83.7266 11.7853C83.7266 11.218 83.2607 10.8516 82.4707 10.8516C82.3124 10.8314 82.1513 10.8404 81.9968 10.8781C81.8424 10.9158 81.6977 10.9815 81.5714 11.0713C81.4452 11.1611 81.3398 11.2732 81.2616 11.4009C81.1833 11.5287 81.1338 11.6695 81.116 11.815H80.1304C80.1474 11.5508 80.2235 11.2926 80.3541 11.0566C80.4847 10.8205 80.6669 10.6116 80.8894 10.4428C81.1119 10.2741 81.37 10.1491 81.6475 10.0757C81.9251 10.0023 82.2161 9.98197 82.5026 10.0161C83.8244 10.0161 84.7551 10.6941 84.7551 11.67C84.7582 11.997 84.6388 12.315 84.4168 12.5711C84.1948 12.8271 83.8837 13.0056 83.5354 13.0769V13.1493C83.9483 13.1661 84.3372 13.332 84.617 13.6107C84.8968 13.8894 85.0448 14.2583 85.0286 14.6367C84.9981 14.9087 84.9086 15.1724 84.7653 15.4123C84.6221 15.6523 84.428 15.8636 84.1945 16.0339C83.961 16.2042 83.6927 16.3301 83.4054 16.4042C83.118 16.4783 82.8175 16.499 82.5213 16.4653C82.2245 16.5024 81.9225 16.4843 81.6335 16.4122C81.3445 16.3401 81.0742 16.2154 80.8389 16.0456C80.6036 15.8757 80.408 15.6642 80.2638 15.4236C80.1197 15.183 80.0298 14.9183 79.9997 14.6453H81.0006C81.0611 15.2337 81.6511 15.6132 82.5213 15.6132C83.3915 15.6132 83.9595 15.1869 83.9595 14.5859C83.9595 13.9764 83.4245 13.6009 82.4894 13.6009H81.5632V12.7658Z" fill="black"/>
<path d="M86.1657 15.0037C86.1657 14.1681 86.8458 13.6865 88.05 13.618L89.4224 13.5455V13.1449C89.4224 12.6546 89.0697 12.3778 88.3852 12.3778C87.827 12.3778 87.4413 12.5655 87.3293 12.8937H86.3613C86.4634 12.0964 87.2831 11.585 88.4324 11.585C89.7025 11.585 90.4189 12.1644 90.4189 13.1449V16.3164H89.4553V15.6641H89.3762C89.2157 15.8981 88.9902 16.0888 88.7228 16.2168C88.4555 16.3449 88.1558 16.4056 87.8545 16.3929C87.6418 16.4131 87.4268 16.3923 87.2234 16.3318C87.0201 16.2713 86.8328 16.1724 86.6737 16.0416C86.5146 15.9107 86.3872 15.7507 86.2997 15.5719C86.2122 15.3932 86.1665 15.1996 86.1657 15.0037ZM89.4224 14.607V14.219L88.1851 14.2915C87.4874 14.3342 87.171 14.5517 87.171 14.9609C87.171 15.3787 87.5665 15.6218 88.1105 15.6218C88.2698 15.6366 88.4308 15.6218 88.5838 15.5784C88.7369 15.535 88.8788 15.4639 89.0012 15.3692C89.1236 15.2746 89.224 15.1583 89.2963 15.0274C89.3687 14.8964 89.4115 14.7535 89.4224 14.607Z" fill="black"/>
<path d="M93.0723 12.4457V16.3164H92.0724V11.6746H95.4082V12.4456L93.0723 12.4457Z" fill="black"/>
<path d="M101.468 13.9934C101.468 15.4682 100.654 16.3928 99.3746 16.3928C99.0606 16.4125 98.7471 16.3495 98.4709 16.2114C98.1947 16.0733 97.9673 15.8657 97.8155 15.6132H97.7363V17.8596H96.7365V11.6746H97.699V12.4417H97.7737C97.9282 12.1803 98.1586 11.9631 98.4393 11.8142C98.7201 11.6652 99.0403 11.5903 99.3647 11.5976C100.654 11.5975 101.468 12.5181 101.468 13.9934ZM100.439 13.9934C100.439 13.0129 99.9327 12.4205 99.0856 12.4205C98.244 12.4205 97.7177 13.0255 97.7177 13.9975C97.7177 14.9649 98.244 15.5704 99.0812 15.5704C99.9327 15.5704 100.439 14.9779 100.439 13.9934Z" fill="black"/>
<path d="M102.8 17.9789V17.1901C102.908 17.2027 103.017 17.2085 103.126 17.2073C103.339 17.2217 103.55 17.1636 103.72 17.044C103.889 16.9245 104.004 16.7519 104.042 16.5595L104.117 16.3335L102.283 11.6746H103.372L104.642 15.3615H104.722L105.987 11.6746H107.048L105.159 16.5081C104.726 17.6376 104.247 18 103.214 18C103.131 18 102.893 17.9915 102.8 17.9789Z" fill="black"/>
<path d="M107.826 14.9991H108.822C108.92 15.4084 109.338 15.6217 109.924 15.6217C110.59 15.6217 110.998 15.353 110.998 14.9352C110.998 14.4877 110.631 14.2743 109.924 14.2743H109.166V13.5626H109.911C110.515 13.5626 110.823 13.3497 110.823 12.9616C110.823 12.6209 110.525 12.3607 109.911 12.3607C109.351 12.3607 108.943 12.5781 108.878 12.9445H107.914C107.986 12.5235 108.236 12.1451 108.609 11.8909C108.983 11.6367 109.45 11.5268 109.911 11.585C111.115 11.585 111.804 12.0838 111.804 12.868C111.809 13.0864 111.733 13.2999 111.588 13.4729C111.442 13.6459 111.236 13.7678 111.004 13.8183V13.8908C111.28 13.9234 111.534 14.0478 111.716 14.2403C111.899 14.4329 111.998 14.6801 111.995 14.9352C111.995 15.8176 111.175 16.4014 109.924 16.4014C108.817 16.4014 107.919 15.9368 107.826 14.9991Z" fill="black"/>
<path d="M113.435 16.3164V11.6746H114.426V14.8673H114.506L116.84 11.6746H117.831V16.3164H116.84V13.1066H116.766L114.426 16.3164L113.435 16.3164Z" fill="black"/>
<path d="M123.291 12.4457H121.696V16.3164H120.695V12.4457H119.099V11.6746H123.291V12.4457Z" fill="black"/>
<path d="M128.677 15.063C128.541 15.4872 128.246 15.8541 127.845 16.0995C127.443 16.345 126.96 16.4534 126.481 16.4059C126.147 16.414 125.815 16.3554 125.508 16.2342C125.202 16.1131 124.928 15.9323 124.705 15.7043C124.482 15.4763 124.316 15.2067 124.219 14.9141C124.121 14.6216 124.095 14.3131 124.14 14.01C124.096 13.706 124.123 13.3969 124.22 13.1034C124.318 12.81 124.483 12.5391 124.704 12.3091C124.926 12.0792 125.199 11.8955 125.504 11.7706C125.81 11.6456 126.141 11.5823 126.476 11.5849C127.886 11.5849 128.737 12.4673 128.737 13.9249V14.2446H125.16V14.2959C125.144 14.4663 125.167 14.6378 125.228 14.7995C125.289 14.9611 125.386 15.1094 125.513 15.2346C125.64 15.3598 125.794 15.4593 125.966 15.5267C126.137 15.594 126.323 15.6278 126.509 15.6257C126.748 15.6519 126.99 15.6124 127.205 15.5122C127.419 15.412 127.596 15.2556 127.713 15.063L128.677 15.063ZM125.16 13.5671H127.718C127.73 13.4114 127.707 13.255 127.65 13.1079C127.593 12.9608 127.503 12.8264 127.385 12.7131C127.268 12.5999 127.126 12.5104 126.969 12.4504C126.811 12.3904 126.642 12.3611 126.472 12.3646C126.299 12.3625 126.127 12.3921 125.967 12.4518C125.807 12.5114 125.661 12.5999 125.539 12.712C125.416 12.8241 125.32 12.9576 125.255 13.1044C125.19 13.2513 125.157 13.4086 125.16 13.5671Z" fill="black"/>
<path d="M132.916 11.6746H135.2C136.191 11.6746 136.773 12.1346 136.773 12.8549C136.774 13.0834 136.69 13.3055 136.534 13.484C136.378 13.6625 136.16 13.7865 135.917 13.8354V13.9079C136.213 13.925 136.49 14.0456 136.692 14.2447C136.893 14.4439 137.004 14.7064 137 14.978C137 15.7878 136.335 16.3163 135.223 16.3163H132.916V11.6746ZM133.907 12.3777V13.5797H134.898C135.502 13.5797 135.791 13.3668 135.791 12.9742C135.791 12.6123 135.54 12.3777 135.009 12.3777L133.907 12.3777ZM133.907 14.2532V15.6132H135.093C135.684 15.6132 136 15.3741 136 14.9352C136 14.4706 135.642 14.2532 134.967 14.2532L133.907 14.2532Z" fill="black"/>
<path d="M90.7011 34.8674H84.2688L82.7241 39.165H79.9997L86.0922 23.265H88.9228L95.0154 39.165H92.2445L90.7011 34.8674ZM84.935 32.8843H90.0336L87.5202 25.9096H87.4498L84.935 32.8843Z" fill="black"/>
<path d="M108.173 33.3696C108.173 36.9719 106.127 39.2864 103.039 39.2864C102.257 39.325 101.479 39.1552 100.794 38.7965C100.11 38.4378 99.546 37.9047 99.168 37.2583H99.1095V43H96.5841V27.5728H99.0286V29.5009H99.075C99.4704 28.8575 100.044 28.3272 100.733 27.9663C101.423 27.6054 102.204 27.4275 102.993 27.4515C106.115 27.4515 108.173 29.7772 108.173 33.3696ZM105.578 33.3696C105.578 31.0226 104.29 29.4796 102.326 29.4796C100.397 29.4796 99.099 31.0551 99.099 33.3696C99.099 35.7053 100.397 37.2695 102.326 37.2695C104.29 37.2695 105.578 35.7378 105.578 33.3696Z" fill="black"/>
<path d="M121.715 33.3696C121.715 36.9719 119.668 39.2864 116.58 39.2864C115.798 39.325 115.02 39.1552 114.335 38.7965C113.651 38.4378 113.087 37.9047 112.709 37.2583H112.651V43H110.125V27.5728H112.57V29.5009H112.616C113.012 28.8575 113.585 28.3272 114.274 27.9663C114.964 27.6054 115.745 27.4275 116.534 27.4515C119.656 27.4515 121.715 29.7772 121.715 33.3696ZM119.119 33.3696C119.119 31.0226 117.832 29.4796 115.868 29.4796C113.938 29.4796 112.64 31.0551 112.64 33.3696C112.64 35.7053 113.938 37.2695 115.868 37.2695C117.832 37.2695 119.119 35.7378 119.119 33.3696Z" fill="black"/>
<path d="M130.664 34.735C130.851 36.3117 132.477 37.347 134.698 37.347C136.827 37.347 138.358 36.3116 138.358 34.8899C138.358 33.6558 137.434 32.9169 135.247 32.4104L133.06 31.914C129.962 31.2088 128.523 29.8434 128.523 27.6277C128.523 24.8843 131.061 23 134.662 23C138.229 23 140.674 24.8843 140.756 27.6277H138.207C138.054 26.0409 136.662 25.0832 134.628 25.0832C132.593 25.0832 131.201 26.0522 131.201 27.4626C131.201 28.5867 132.09 29.2482 134.265 29.7546L136.125 30.1847C139.587 30.9562 141.024 32.2666 141.024 34.5923C141.024 37.567 138.511 39.43 134.511 39.43C130.769 39.43 128.242 37.6107 128.079 34.7348L130.664 34.735Z" fill="black"/>
<path d="M146.478 24.8294V27.5728H148.818V29.4571H146.478V35.8478C146.478 36.8406 146.947 37.3033 147.975 37.3033C148.253 37.2987 148.53 37.2803 148.806 37.2482V39.1213C148.343 39.2027 147.873 39.2396 147.403 39.2313C144.912 39.2313 143.941 38.3498 143.941 36.1016V29.4571H142.152V27.5728H143.941V24.8294H146.478Z" fill="black"/>
<path d="M150.171 33.3696C150.171 29.7222 152.451 27.4302 156.006 27.4302C159.573 27.4302 161.842 29.7221 161.842 33.3696C161.842 37.027 159.585 39.3089 156.006 39.3089C152.428 39.3089 150.171 37.027 150.171 33.3696ZM159.269 33.3696C159.269 30.8676 158.052 29.3908 156.006 29.3908C153.96 29.3908 152.743 30.8788 152.743 33.3696C152.743 35.8816 153.96 37.3471 156.006 37.3471C158.052 37.3471 159.269 35.8816 159.269 33.3696Z" fill="black"/>
<path d="M163.924 27.5728H166.332V29.5459H166.391C166.554 28.9296 166.937 28.385 167.476 28.0036C168.015 27.6222 168.677 27.4272 169.35 27.4515C169.641 27.4505 169.931 27.4803 170.215 27.5403V29.7659C169.848 29.6602 169.465 29.6116 169.081 29.6222C168.714 29.6081 168.348 29.6691 168.009 29.8008C167.669 29.9326 167.364 30.132 167.114 30.3853C166.864 30.6387 166.675 30.9401 166.56 31.2687C166.446 31.5973 166.408 31.9455 166.449 32.2892V39.1651H163.924L163.924 27.5728Z" fill="black"/>
<path d="M181.859 35.7603C181.52 37.8647 179.345 39.3089 176.562 39.3089C172.983 39.3089 170.761 37.0495 170.761 33.4246C170.761 29.7885 172.995 27.4302 176.456 27.4302C179.86 27.4302 182 29.6334 182 33.1483V33.9635H173.311V34.1073C173.27 34.5339 173.327 34.9637 173.477 35.3681C173.627 35.7725 173.866 36.1423 174.179 36.4528C174.492 36.7634 174.872 37.0076 175.292 37.1694C175.713 37.3311 176.166 37.4066 176.62 37.3908C177.217 37.4435 177.816 37.3133 178.328 37.0195C178.84 36.7257 179.237 36.2841 179.461 35.7603L181.859 35.7603ZM173.322 32.3005H179.473C179.496 31.9169 179.434 31.533 179.292 31.173C179.15 30.8129 178.93 30.4844 178.647 30.2082C178.363 29.9319 178.023 29.7138 177.645 29.5676C177.268 29.4213 176.863 29.3501 176.456 29.3583C176.044 29.356 175.637 29.4305 175.256 29.5774C174.876 29.7243 174.53 29.9408 174.238 30.2143C173.947 30.4878 173.716 30.813 173.559 31.1711C173.402 31.5292 173.321 31.913 173.322 32.3005Z" fill="black"/>
<path fill-rule="evenodd" clip-rule="evenodd" d="M56.386 28.0812C56.403 26.778 56.7534 25.5002 57.4045 24.3667C58.0557 23.2333 58.9865 22.2809 60.1104 21.5984C59.3964 20.591 58.4546 19.7621 57.3596 19.1772C56.2646 18.5924 55.0467 18.2679 53.8026 18.2295C52.1792 18.0611 50.5862 18.6857 49.2842 19.1962C48.4577 19.5203 47.7485 19.7984 47.2233 19.7984C46.6259 19.7984 45.8964 19.5089 45.0789 19.1845C44.01 18.7603 42.7908 18.2765 41.5203 18.3024C40.07 18.3486 38.6565 18.7653 37.4176 19.5117C36.1788 20.2581 35.1567 21.3089 34.4511 22.5615C31.3946 27.7896 33.6745 35.4731 36.6024 39.6991C38.0673 41.7684 39.7794 44.0799 42.0196 43.998C43.0358 43.9563 43.7569 43.6565 44.5017 43.3468C45.3635 42.9885 46.2571 42.617 47.6766 42.617C49.015 42.617 49.8704 42.9769 50.6912 43.3224C51.4781 43.6535 52.2333 43.9713 53.352 43.9458C55.7043 43.9081 57.1864 41.8673 58.5999 39.7784C59.6524 38.3039 60.4624 36.6743 60.9997 34.9499C59.633 34.3788 58.4668 33.423 57.6464 32.2016C56.8259 30.9801 56.3876 29.5471 56.386 28.0812ZM52.0689 15.4501C53.3515 13.929 53.9833 11.9739 53.8303 10C51.8708 10.2033 50.0608 11.1285 48.7609 12.5912C48.1254 13.3058 47.6386 14.1371 47.3284 15.0377C47.0183 15.9382 46.8908 16.8903 46.9534 17.8396C47.9335 17.8495 48.9031 17.6397 49.7891 17.2258C50.6752 16.8119 51.4547 16.2048 52.0689 15.4501ZM81.5632 12.7658H82.4609C82.6154 12.7834 82.7722 12.7715 82.9215 12.7309C83.0708 12.6902 83.2092 12.6217 83.3281 12.5296C83.447 12.4374 83.5438 12.3238 83.6124 12.1957C83.681 12.0676 83.7199 11.9278 83.7266 11.7853C83.7266 11.218 83.2607 10.8516 82.4707 10.8516C82.3124 10.8314 82.1513 10.8404 81.9968 10.8781C81.8424 10.9158 81.6977 10.9815 81.5714 11.0713C81.4452 11.1611 81.3398 11.2732 81.2616 11.4009C81.1833 11.5287 81.1338 11.6695 81.116 11.815H80.1304C80.1474 11.5508 80.2235 11.2926 80.3541 11.0566C80.4847 10.8205 80.6669 10.6116 80.8894 10.4428C81.1119 10.2741 81.37 10.1491 81.6475 10.0757C81.9251 10.0023 82.2161 9.98197 82.5026 10.0161C83.8244 10.0161 84.7551 10.6941 84.7551 11.67C84.7582 11.997 84.6388 12.315 84.4168 12.5711C84.1948 12.8271 83.8837 13.0056 83.5354 13.0769V13.1493C83.9483 13.1661 84.3372 13.332 84.617 13.6107C84.8968 13.8894 85.0448 14.2583 85.0286 14.6367C84.9981 14.9087 84.9086 15.1724 84.7653 15.4123C84.6221 15.6523 84.428 15.8636 84.1945 16.0339C83.961 16.2042 83.6927 16.3301 83.4054 16.4042C83.118 16.4783 82.8175 16.499 82.5213 16.4653C82.2245 16.5024 81.9225 16.4843 81.6335 16.4122C81.3445 16.3401 81.0742 16.2154 80.8389 16.0456C80.6036 15.8757 80.408 15.6642 80.2638 15.4236C80.1197 15.183 80.0298 14.9183 79.9997 14.6453H81.0006C81.0611 15.2337 81.6511 15.6132 82.5213 15.6132C83.3915 15.6132 83.9595 15.1869 83.9595 14.5859C83.9595 13.9764 83.4245 13.6009 82.4894 13.6009H81.5632V12.7658ZM86.1657 15.0037C86.1657 14.1681 86.8458 13.6865 88.05 13.618L89.4224 13.5455V13.1449C89.4224 12.6546 89.0697 12.3778 88.3852 12.3778C87.827 12.3778 87.4413 12.5655 87.3293 12.8937H86.3613C86.4634 12.0964 87.2831 11.585 88.4324 11.585C89.7025 11.585 90.4189 12.1644 90.4189 13.1449V16.3164H89.4553V15.6641H89.3762C89.2157 15.8981 88.9902 16.0888 88.7228 16.2168C88.4555 16.3449 88.1558 16.4056 87.8545 16.3929C87.6418 16.4131 87.4268 16.3923 87.2234 16.3318C87.0201 16.2713 86.8328 16.1724 86.6737 16.0416C86.5146 15.9107 86.3872 15.7507 86.2997 15.5719C86.2122 15.3932 86.1665 15.1996 86.1657 15.0037ZM93.0723 12.4457V16.3164H92.0724V11.6746H95.4082V12.4456L93.0723 12.4457ZM101.468 13.9934C101.468 15.4682 100.654 16.3928 99.3746 16.3928C99.0606 16.4125 98.7471 16.3495 98.4709 16.2114C98.1947 16.0733 97.9673 15.8657 97.8155 15.6132H97.7363V17.8596H96.7365V11.6746H97.699V12.4417H97.7737C97.9282 12.1803 98.1586 11.9631 98.4393 11.8142C98.7201 11.6652 99.0403 11.5903 99.3647 11.5976C100.654 11.5975 101.468 12.5181 101.468 13.9934ZM102.8 17.9789V17.1901C102.908 17.2027 103.017 17.2085 103.126 17.2073C103.339 17.2217 103.55 17.1636 103.72 17.044C103.889 16.9245 104.004 16.7519 104.042 16.5595L104.117 16.3335L102.283 11.6746H103.372L104.642 15.3615H104.722L105.987 11.6746H107.048L105.159 16.5081C104.726 17.6376 104.247 18 103.214 18C103.131 18 102.893 17.9915 102.8 17.9789ZM107.826 14.9991H108.822C108.92 15.4084 109.338 15.6217 109.924 15.6217C110.59 15.6217 110.998 15.353 110.998 14.9352C110.998 14.4877 110.631 14.2743 109.924 14.2743H109.166V13.5626H109.911C110.515 13.5626 110.823 13.3497 110.823 12.9616C110.823 12.6209 110.525 12.3607 109.911 12.3607C109.351 12.3607 108.943 12.5781 108.878 12.9445H107.914C107.986 12.5235 108.236 12.1451 108.609 11.8909C108.983 11.6367 109.45 11.5268 109.911 11.585C111.115 11.585 111.804 12.0838 111.804 12.868C111.809 13.0864 111.733 13.2999 111.588 13.4729C111.442 13.6459 111.236 13.7678 111.004 13.8183V13.8908C111.28 13.9234 111.534 14.0478 111.716 14.2403C111.899 14.4329 111.998 14.6801 111.995 14.9352C111.995 15.8176 111.175 16.4014 109.924 16.4014C108.817 16.4014 107.919 15.9368 107.826 14.9991ZM113.435 16.3164V11.6746H114.426V14.8673H114.506L116.84 11.6746H117.831V16.3164H116.84V13.1066H116.766L114.426 16.3164L113.435 16.3164ZM123.291 12.4457H121.696V16.3164H120.695V12.4457H119.099V11.6746H123.291V12.4457ZM128.677 15.063C128.541 15.4872 128.246 15.8541 127.845 16.0995C127.443 16.345 126.96 16.4534 126.481 16.4059C126.147 16.414 125.815 16.3554 125.508 16.2342C125.202 16.1131 124.928 15.9323 124.705 15.7043C124.482 15.4763 124.316 15.2067 124.219 14.9141C124.121 14.6216 124.095 14.3131 124.14 14.01C124.096 13.706 124.123 13.3969 124.22 13.1034C124.318 12.81 124.483 12.5391 124.704 12.3091C124.926 12.0792 125.199 11.8955 125.504 11.7706C125.81 11.6456 126.141 11.5823 126.476 11.5849C127.886 11.5849 128.737 12.4673 128.737 13.9249V14.2446H125.16V14.2959C125.144 14.4663 125.167 14.6378 125.228 14.7995C125.289 14.9611 125.386 15.1094 125.513 15.2346C125.64 15.3598 125.794 15.4593 125.966 15.5267C126.137 15.594 126.323 15.6278 126.509 15.6257C126.748 15.6519 126.99 15.6124 127.205 15.5122C127.419 15.412 127.596 15.2556 127.713 15.063L128.677 15.063ZM132.916 11.6746H135.2C136.191 11.6746 136.773 12.1346 136.773 12.8549C136.774 13.0834 136.69 13.3055 136.534 13.484C136.378 13.6625 136.16 13.7865 135.917 13.8354V13.9079C136.213 13.925 136.49 14.0456 136.692 14.2447C136.893 14.4439 137.004 14.7064 137 14.978C137 15.7878 136.335 16.3163 135.223 16.3163H132.916V11.6746ZM90.7011 34.8674H84.2688L82.7241 39.165H79.9997L86.0922 23.265H88.9228L95.0154 39.165H92.2445L90.7011 34.8674ZM108.173 33.3696C108.173 36.9719 106.127 39.2864 103.039 39.2864C102.257 39.325 101.479 39.1552 100.794 38.7965C100.11 38.4378 99.546 37.9047 99.168 37.2583H99.1095V43H96.5841V27.5728H99.0286V29.5009H99.075C99.4704 28.8575 100.044 28.3272 100.733 27.9663C101.423 27.6054 102.204 27.4275 102.993 27.4515C106.115 27.4515 108.173 29.7772 108.173 33.3696ZM121.715 33.3696C121.715 36.9719 119.668 39.2864 116.58 39.2864C115.798 39.325 115.02 39.1552 114.335 38.7965C113.651 38.4378 113.087 37.9047 112.709 37.2583H112.651V43H110.125V27.5728H112.57V29.5009H112.616C113.012 28.8575 113.585 28.3272 114.274 27.9663C114.964 27.6054 115.745 27.4275 116.534 27.4515C119.656 27.4515 121.715 29.7772 121.715 33.3696ZM130.664 34.735C130.851 36.3117 132.477 37.347 134.698 37.347C136.827 37.347 138.358 36.3116 138.358 34.8899C138.358 33.6558 137.434 32.9169 135.247 32.4104L133.06 31.914C129.962 31.2088 128.523 29.8434 128.523 27.6277C128.523 24.8843 131.061 23 134.662 23C138.229 23 140.674 24.8843 140.756 27.6277H138.207C138.054 26.0409 136.662 25.0832 134.628 25.0832C132.593 25.0832 131.201 26.0522 131.201 27.4626C131.201 28.5867 132.09 29.2482 134.265 29.7546L136.125 30.1847C139.587 30.9562 141.024 32.2666 141.024 34.5923C141.024 37.567 138.511 39.43 134.511 39.43C130.769 39.43 128.242 37.6107 128.079 34.7348L130.664 34.735ZM146.478 24.8294V27.5728H148.818V29.4571H146.478V35.8478C146.478 36.8406 146.947 37.3033 147.975 37.3033C148.253 37.2987 148.53 37.2803 148.806 37.2482V39.1213C148.343 39.2027 147.873 39.2396 147.403 39.2313C144.912 39.2313 143.941 38.3498 143.941 36.1016V29.4571H142.152V27.5728H143.941V24.8294H146.478ZM150.171 33.3696C150.171 29.7222 152.451 27.4302 156.006 27.4302C159.573 27.4302 161.842 29.7221 161.842 33.3696C161.842 37.027 159.585 39.3089 156.006 39.3089C152.428 39.3089 150.171 37.027 150.171 33.3696ZM163.924 27.5728H166.332V29.5459H166.391C166.554 28.9296 166.937 28.385 167.476 28.0036C168.015 27.6222 168.677 27.4272 169.35 27.4515C169.641 27.4505 169.931 27.4803 170.215 27.5403V29.7659C169.848 29.6602 169.465 29.6116 169.081 29.6222C168.714 29.6081 168.348 29.6691 168.009 29.8008C167.669 29.9326 167.364 30.132 167.114 30.3853C166.864 30.6387 166.675 30.9401 166.56 31.2687C166.446 31.5973 166.408 31.9455 166.449 32.2892V39.1651H163.924L163.924 27.5728ZM181.859 35.7603C181.52 37.8647 179.345 39.3089 176.562 39.3089C172.983 39.3089 170.761 37.0495 170.761 33.4246C170.761 29.7885 172.995 27.4302 176.456 27.4302C179.86 27.4302 182 29.6334 182 33.1483V33.9635H173.311V34.1073C173.27 34.5339 173.327 34.9637 173.477 35.3681C173.627 35.7725 173.866 36.1423 174.179 36.4528C174.492 36.7634 174.872 37.0076 175.292 37.1694C175.713 37.3311 176.166 37.4066 176.62 37.3908C177.217 37.4435 177.816 37.3133 178.328 37.0195C178.84 36.7257 179.237 36.2841 179.461 35.7603L181.859 35.7603ZM89.4224 14.607V14.219L88.1851 14.2915C87.4874 14.3342 87.171 14.5517 87.171 14.9609C87.171 15.3787 87.5665 15.6218 88.1105 15.6218C88.2698 15.6366 88.4308 15.6218 88.5838 15.5784C88.7369 15.535 88.8788 15.4639 89.0012 15.3692C89.1236 15.2746 89.224 15.1583 89.2963 15.0274C89.3687 14.8964 89.4115 14.7535 89.4224 14.607ZM99.0856 12.4205C99.9327 12.4205 100.439 13.0129 100.439 13.9934C100.439 14.9779 99.9327 15.5704 99.0812 15.5704C98.244 15.5704 97.7177 14.9649 97.7177 13.9975C97.7177 13.0255 98.244 12.4205 99.0856 12.4205ZM125.16 13.5671H127.718C127.73 13.4114 127.707 13.255 127.65 13.1079C127.593 12.9608 127.503 12.8264 127.385 12.7131C127.268 12.5999 127.126 12.5104 126.969 12.4504C126.811 12.3904 126.642 12.3611 126.472 12.3646C126.299 12.3625 126.127 12.3921 125.967 12.4518C125.807 12.5114 125.661 12.5999 125.539 12.712C125.416 12.8241 125.32 12.9576 125.255 13.1044C125.19 13.2513 125.157 13.4086 125.16 13.5671ZM133.907 13.5797V12.3777L135.009 12.3777C135.54 12.3777 135.791 12.6123 135.791 12.9742C135.791 13.3668 135.502 13.5797 134.898 13.5797H133.907ZM133.907 14.2532V15.6132H135.093C135.684 15.6132 136 15.3741 136 14.9352C136 14.4706 135.642 14.2532 134.967 14.2532L133.907 14.2532ZM102.326 29.4796C104.29 29.4796 105.578 31.0226 105.578 33.3696C105.578 35.7378 104.29 37.2695 102.326 37.2695C100.397 37.2695 99.099 35.7053 99.099 33.3696C99.099 31.0551 100.397 29.4796 102.326 29.4796ZM84.935 32.8843H90.0336L87.5202 25.9096H87.4498L84.935 32.8843ZM115.868 29.4796C117.832 29.4796 119.119 31.0226 119.119 33.3696C119.119 35.7378 117.832 37.2695 115.868 37.2695C113.938 37.2695 112.64 35.7053 112.64 33.3696C112.64 31.0551 113.938 29.4796 115.868 29.4796ZM159.269 33.3696C159.269 30.8676 158.052 29.3908 156.006 29.3908C153.96 29.3908 152.743 30.8788 152.743 33.3696C152.743 35.8816 153.96 37.3471 156.006 37.3471C158.052 37.3471 159.269 35.8816 159.269 33.3696ZM179.473 32.3005H173.322C173.321 31.913 173.402 31.5292 173.559 31.1711C173.716 30.813 173.947 30.4878 174.238 30.2143C174.53 29.9408 174.876 29.7243 175.256 29.5774C175.637 29.4305 176.044 29.356 176.456 29.3583C176.863 29.3501 177.268 29.4213 177.645 29.5676C178.023 29.7138 178.363 29.9319 178.647 30.2082C178.93 30.4844 179.15 30.8129 179.292 31.173C179.434 31.533 179.496 31.9169 179.473 32.3005Z" fill="black"/>
</svg>
