<svg width="220" height="54" viewBox="0 0 220 54" fill="none" xmlns="http://www.w3.org/2000/svg">
<g clip-path="url(#clip0_582_247)">
<rect width="220" height="54" rx="10" fill="white"/>
<path d="M0 10C0 4.47715 4.47715 0 10 0L210 0C215.523 0 220 4.47715 220 10V44C220 49.5228 215.523 54 210 54H9.99999C4.47715 54 0 49.5228 0 44V10Z" fill="url(#paint0_radial_582_247)"/>
<path d="M112.741 28.8274C111.729 28.8298 110.741 29.1417 109.901 29.7234C109.061 30.3052 108.407 31.1309 108.022 32.0959C107.637 33.0609 107.538 34.122 107.738 35.145C107.938 36.168 108.427 37.107 109.144 37.8431C109.861 38.5793 110.774 39.0796 111.767 39.2808C112.759 39.482 113.788 39.375 114.721 38.9734C115.655 38.5718 116.452 37.8936 117.013 37.0246C117.573 36.1555 117.87 35.1347 117.868 34.0912C117.878 33.395 117.752 32.704 117.497 32.0592C117.243 31.4143 116.865 30.8289 116.386 30.3378C115.908 29.8466 115.339 29.4598 114.712 29.2003C114.086 28.9408 113.416 28.814 112.741 28.8274ZM112.741 37.2866C112.121 37.3314 111.502 37.1826 110.965 36.8598C110.428 36.537 109.997 36.055 109.729 35.4764C109.461 34.8979 109.368 34.2496 109.462 33.6158C109.556 32.982 109.833 32.392 110.256 31.9225C110.68 31.4531 111.23 31.1259 111.836 30.9834C112.442 30.8409 113.076 30.8898 113.655 31.1237C114.233 31.3576 114.731 31.7657 115.082 32.2949C115.433 32.8241 115.621 33.45 115.622 34.0912C115.642 34.4974 115.582 34.9036 115.447 35.2857C115.312 35.6677 115.104 36.018 114.835 36.3158C114.566 36.6136 114.243 36.853 113.883 37.0197C113.523 37.1864 113.135 37.2772 112.741 37.2866ZM101.55 28.8274C100.538 28.8298 99.5497 29.1417 98.7099 29.7234C97.87 30.3052 97.2162 31.1309 96.8313 32.0959C96.4463 33.0609 96.3475 34.122 96.5471 35.145C96.7468 36.168 97.2362 37.107 97.9532 37.8431C98.6703 38.5793 99.5828 39.0796 100.576 39.2808C101.568 39.482 102.597 39.375 103.53 38.9734C104.464 38.5718 105.261 37.8936 105.821 37.0246C106.382 36.1555 106.679 35.1347 106.677 34.0912C106.687 33.395 106.561 32.704 106.306 32.0592C106.052 31.4143 105.674 30.8289 105.195 30.3378C104.717 29.8466 104.148 29.4598 103.521 29.2003C102.895 28.9408 102.225 28.814 101.55 28.8274ZM101.55 37.2866C100.93 37.3314 100.311 37.1826 99.7737 36.8598C99.2367 36.537 98.8062 36.055 98.5382 35.4764C98.2703 34.8979 98.1772 34.2496 98.2712 33.6158C98.3652 32.982 98.6419 32.392 99.0653 31.9225C99.4887 31.4531 100.039 31.1259 100.645 30.9834C101.251 30.8409 101.885 30.8898 102.464 31.1237C103.042 31.3576 103.54 31.7657 103.891 32.2949C104.241 32.8241 104.43 33.45 104.431 34.0912C104.451 34.4974 104.391 34.9036 104.256 35.2857C104.121 35.6677 103.913 36.018 103.644 36.3158C103.375 36.6136 103.052 36.853 102.692 37.0197C102.332 37.1864 101.944 37.2772 101.55 37.2866ZM88.2454 30.4499V32.6792H93.4326C93.3513 33.7293 92.9281 34.7201 92.2319 35.4907C91.7115 36.0376 91.0857 36.4656 90.3949 36.7473C89.704 37.0289 88.9636 37.1578 88.2214 37.1256C86.6928 37.1256 85.2268 36.4993 84.1459 35.3844C83.065 34.2695 82.4578 32.7573 82.4578 31.1806C82.4578 29.6039 83.065 28.0917 84.1459 26.9768C85.2268 25.8619 86.6928 25.2356 88.2214 25.2356C89.6868 25.2131 91.1018 25.7871 92.1598 26.8333L93.6848 25.2603C92.9691 24.5302 92.1194 23.9548 91.1854 23.5677C90.2514 23.1806 89.2518 22.9897 88.2454 23.0062C87.1779 22.9633 86.113 23.1432 85.1146 23.535C84.1161 23.9268 83.2046 24.5225 82.4347 25.2864C81.6647 26.0502 81.0522 26.9666 80.6338 27.9804C80.2154 28.9943 79.9998 30.0849 79.9998 31.1868C79.9998 32.2887 80.2154 33.3793 80.6338 34.3931C81.0522 35.407 81.6647 36.3233 82.4347 37.0872C83.2046 37.8511 84.1161 38.4468 85.1146 38.8386C86.113 39.2304 87.1779 39.4102 88.2454 39.3674C89.2725 39.4097 90.2967 39.2274 91.2507 38.8325C92.2048 38.4376 93.067 37.8391 93.7808 37.0761C95.0418 35.6473 95.7136 33.7682 95.654 31.837C95.6583 31.3722 95.6221 30.908 95.5459 30.4499H88.2454ZM142.651 32.1838C142.338 31.2335 141.753 30.4038 140.972 29.8044C140.192 29.205 139.253 28.8643 138.281 28.8274C137.624 28.826 136.974 28.9637 136.371 29.2318C135.767 29.4999 135.224 29.8928 134.774 30.3861C134.324 30.8795 133.976 31.4628 133.753 32.1001C133.531 32.7374 133.437 33.415 133.478 34.0912C133.467 35.2218 133.812 36.3255 134.46 37.2374C135.108 38.1493 136.025 38.8206 137.073 39.1508C138.121 39.4811 139.245 39.4526 140.277 39.0698C141.308 38.6869 142.192 37.9701 142.796 37.0265L141.054 35.788C140.795 36.2342 140.427 36.6027 139.987 36.8569C139.546 37.1111 139.049 37.2421 138.545 37.2371C138.024 37.2593 137.51 37.1185 137.068 36.8334C136.627 36.5482 136.279 36.132 136.071 35.6394L142.904 32.7288L142.651 32.1838ZM135.687 33.9426C135.663 33.5578 135.713 33.172 135.835 32.8076C135.957 32.4432 136.149 32.1075 136.398 31.8203C136.647 31.5331 136.95 31.3001 137.287 31.135C137.625 30.9699 137.991 30.8759 138.365 30.8586C138.752 30.8342 139.137 30.9282 139.472 31.1287C139.808 31.3292 140.078 31.6273 140.25 31.9857L135.687 33.9426ZM130.14 39.0454H132.385V23.5635H130.14V39.0454ZM126.465 30.004H126.381C126.046 29.6099 125.632 29.2953 125.168 29.0815C124.703 28.8678 124.2 28.7599 123.692 28.7654C122.379 28.8311 121.142 29.415 120.236 30.3961C119.33 31.3772 118.824 32.6804 118.824 34.0354C118.824 35.3905 119.33 36.6937 120.236 37.6748C121.142 38.6559 122.379 39.2398 123.692 39.3055C124.201 39.316 124.706 39.2104 125.171 38.9963C125.636 38.7822 126.049 38.4649 126.381 38.0669H126.465V38.8224C126.465 40.8413 125.421 41.9188 123.74 41.9188C123.178 41.9061 122.633 41.7215 122.173 41.3885C121.714 41.0555 121.36 40.5891 121.158 40.0486L119.213 40.8784C119.572 41.8101 120.198 42.6073 121.006 43.1646C121.814 43.7219 122.767 44.013 123.74 43.9996C126.369 43.9996 128.543 42.4018 128.543 38.5128V29.137H126.465V30.004ZM123.884 37.2866C123.097 37.236 122.359 36.878 121.819 36.2855C121.279 35.6929 120.979 34.9104 120.979 34.0974C120.979 33.2843 121.279 32.5018 121.819 31.9093C122.359 31.3167 123.097 30.9587 123.884 30.9081C124.268 30.9252 124.646 31.022 124.993 31.1925C125.341 31.3631 125.651 31.6041 125.907 31.901C126.162 32.198 126.357 32.5449 126.48 32.9212C126.603 33.2975 126.651 33.6953 126.621 34.0912C126.654 34.4884 126.609 34.8883 126.487 35.2668C126.366 35.6452 126.171 35.9944 125.915 36.2931C125.659 36.5918 125.347 36.8338 124.998 37.0046C124.649 37.1754 124.27 37.2713 123.884 37.2866ZM153.17 23.5635H147.791V39.0454H150.036V33.1747H153.17C153.81 33.2221 154.453 33.133 155.058 32.913C155.663 32.693 156.217 32.3467 156.687 31.8959C157.157 31.445 157.531 30.8991 157.787 30.2924C158.043 29.6856 158.176 29.0309 158.176 28.3691C158.176 27.7073 158.043 27.0526 157.787 26.4458C157.531 25.8391 157.157 25.2932 156.687 24.8423C156.217 24.3915 155.663 24.0452 155.058 23.8252C154.453 23.6052 153.81 23.5161 153.17 23.5635ZM153.17 30.9948H150.036V25.7186H153.218C153.556 25.7186 153.89 25.7872 154.201 25.9204C154.513 26.0536 154.796 26.2488 155.035 26.4949C155.274 26.741 155.463 27.0332 155.592 27.3548C155.721 27.6764 155.788 28.021 155.788 28.3691C155.788 28.7172 155.721 29.0618 155.592 29.3834C155.463 29.705 155.274 29.9972 155.035 30.2433C154.796 30.4894 154.513 30.6846 154.201 30.8178C153.89 30.951 153.556 31.0196 153.218 31.0196L153.17 30.9948ZM167.027 28.7778C166.209 28.7258 165.394 28.9222 164.684 29.3426C163.973 29.7631 163.398 30.3891 163.028 31.1434L165.009 31.998C165.21 31.6257 165.51 31.3212 165.874 31.1212C166.239 30.9212 166.651 30.8343 167.063 30.871C167.348 30.8366 167.637 30.8612 167.912 30.9432C168.188 31.0252 168.445 31.1631 168.669 31.3487C168.892 31.5343 169.078 31.764 169.214 32.0243C169.351 32.2847 169.436 32.5705 169.464 32.865V33.0136C168.742 32.6222 167.938 32.4181 167.123 32.4191C164.985 32.4191 162.8 33.6577 162.8 35.9118C162.821 36.391 162.935 36.8608 163.136 37.2935C163.337 37.7262 163.62 38.1129 163.968 38.4306C164.316 38.7483 164.723 38.9905 165.164 39.143C165.605 39.2954 166.071 39.3549 166.534 39.3178C167.098 39.35 167.659 39.227 168.162 38.9615C168.664 38.6959 169.088 38.2974 169.392 37.8068H169.464V39.0454H171.626V33.088C171.626 30.3755 169.632 28.8026 167.075 28.8026L167.027 28.7778ZM166.75 37.2619C166.018 37.2619 164.997 36.8779 164.997 35.949C164.997 34.7105 166.27 34.2893 167.399 34.2893C168.112 34.2712 168.817 34.4508 169.44 34.8095C169.365 35.4822 169.056 36.1038 168.57 36.5592C168.084 37.0147 167.455 37.2731 166.799 37.2866L166.75 37.2619ZM179.502 29.137L176.933 35.8499H176.861L174.195 29.137H171.794L175.792 38.5252L173.511 43.7395H175.852L182 29.137H179.502ZM159.33 39.0454H161.563V23.5635H159.33V39.0454Z" fill="black"/>
<path d="M37.5749 11.5068C37.1753 11.9913 36.9715 12.614 37.005 13.2475V40.7496C36.9638 41.3842 37.1686 42.0098 37.5749 42.4903L37.6597 42.5898L52.6816 27.1851V26.8121L37.6597 11.4198L37.5749 11.5068Z" fill="url(#paint1_linear_582_247)"/>
<path d="M57.6524 32.3199L52.6816 27.1851V26.8121L57.6524 21.6771L57.7615 21.7517L63.7145 25.2081C65.4119 26.1903 65.4119 27.8067 63.7145 28.8013L57.7857 32.2577L57.6524 32.3199Z" fill="url(#paint2_linear_582_247)"/>
<path d="M57.7987 32.2453L52.6823 26.9986L37.5749 42.4903C37.9174 42.803 38.3566 42.9829 38.815 42.9988C39.2734 43.0147 39.7228 42.8656 40.0852 42.5773L57.7987 32.2453Z" fill="url(#paint3_linear_582_247)"/>
<path d="M57.7984 21.7518L40.085 11.4322C39.7249 11.1399 39.2759 10.9872 38.8169 11.0008C38.3578 11.0145 37.9178 11.1936 37.5749 11.5068L52.6823 26.9986L57.7984 21.7518Z" fill="url(#paint4_linear_582_247)"/>
<path d="M80.7588 18H79.9998V15.8382H80.6444C80.9345 15.5109 81.1526 15.1219 81.2837 14.6982C81.4147 14.2745 81.4556 13.8263 81.4035 13.3846V10.1419H85.5625V15.8274H86.2592V17.9892H85.4897V16.6273H80.7588V18ZM82.2041 13.3846C82.2505 14.2529 82.0439 15.1155 81.6114 15.8598H84.7307V10.9417H82.2041V13.3846Z" fill="black"/>
<path d="M92.5078 15.7841C92.2084 16.0963 91.8527 16.3439 91.461 16.5129C91.0694 16.6818 90.6495 16.7688 90.2255 16.7688C89.8015 16.7688 89.3816 16.6818 88.99 16.5129C88.5984 16.3439 88.2427 16.0963 87.9432 15.7841C87.3484 15.1383 87.0163 14.2787 87.0163 13.3845C87.0163 12.4904 87.3484 11.6308 87.9432 10.9849C88.2427 10.6728 88.5984 10.4252 88.99 10.2562C89.3816 10.0873 89.8015 10.0003 90.2255 10.0003C90.6495 10.0003 91.0694 10.0873 91.461 10.2562C91.8527 10.4252 92.2084 10.6728 92.5078 10.9849C92.8082 11.3006 93.0448 11.6755 93.2037 12.0876C93.3626 12.4996 93.4407 12.9406 93.4332 13.3845C93.4455 13.8291 93.3697 14.2716 93.2105 14.6844C93.0513 15.0972 92.8121 15.4715 92.5078 15.7841ZM88.5255 15.2437C88.7446 15.4802 89.008 15.6675 89.2996 15.794C89.5911 15.9204 89.9045 15.9833 90.2203 15.9787C90.5364 15.9852 90.8504 15.9232 91.1422 15.7967C91.434 15.6701 91.6972 15.4818 91.9151 15.2437C92.3638 14.7369 92.6128 14.0733 92.6128 13.3845C92.6128 12.6958 92.3638 12.0322 91.9151 11.5254C91.6972 11.2873 91.434 11.0989 91.1422 10.9724C90.8504 10.8459 90.5364 10.7839 90.2203 10.7904C89.9045 10.7858 89.5911 10.8487 89.2996 10.9751C89.008 11.1016 88.7446 11.2888 88.5255 11.5254C88.0834 12.0356 87.8388 12.6979 87.8388 13.3845C87.8388 14.0712 88.0834 14.7335 88.5255 15.2437Z" fill="black"/>
<path d="M97.4676 16.7678C97.0469 16.7746 96.6292 16.693 96.2397 16.5276C95.8501 16.3623 95.4968 16.1168 95.2009 15.8058C94.601 15.154 94.2661 14.2867 94.2661 13.3846C94.2661 12.4824 94.601 11.6151 95.2009 10.9633C95.5016 10.647 95.8617 10.3984 96.2588 10.2329C96.6559 10.0674 97.0816 9.98856 97.5092 10.0013C97.9445 9.98854 98.3768 10.0793 98.7733 10.2666C99.1697 10.4539 99.5197 10.7329 99.7967 11.0822L99.2456 11.6443C99.0413 11.3713 98.777 11.1532 98.4749 11.0084C98.1727 10.8636 97.8416 10.7962 97.5092 10.812C97.1891 10.8035 96.8708 10.8634 96.5739 10.988C96.277 11.1126 96.0079 11.2992 95.7832 11.5362C95.3353 12.0477 95.0871 12.7145 95.0871 13.4062C95.0871 14.0979 95.3353 14.7646 95.7832 15.2761C96.0079 15.5132 96.277 15.6998 96.5739 15.8244C96.8708 15.9489 97.1891 16.0088 97.5092 16.0003C97.8665 15.9898 98.2172 15.8982 98.5369 15.7321C98.8566 15.5659 99.1375 15.3291 99.36 15.0383L99.9214 15.6112C99.6366 15.9661 99.2821 16.2535 98.8817 16.4543C98.4394 16.6691 97.9557 16.7763 97.4676 16.7678Z" fill="black"/>
<path d="M103.187 16.6273H102.386V10.9417H100.639V10.1418H104.923V10.9417H103.187V16.6273Z" fill="black"/>
<path d="M110.434 10.1418L108.073 15.6112C108.016 15.8305 107.914 16.0342 107.773 16.2083C107.633 16.3823 107.457 16.5225 107.26 16.6192C107.062 16.7158 106.846 16.7666 106.628 16.768C106.409 16.7694 106.193 16.7214 105.994 16.6273L106.202 15.8598C106.329 15.9341 106.472 15.975 106.618 15.9787C106.772 15.9867 106.924 15.9452 107.054 15.8598C107.181 15.7506 107.277 15.609 107.335 15.4491L107.564 14.9302L105.484 10.1418H106.431L107.969 13.8601L109.487 10.1418H110.434Z" fill="black"/>
<path d="M111.338 16.6273V10.1418H115.851V16.6273H115.05V10.9417H112.139V16.6273H111.338Z" fill="black"/>
<path d="M117.275 16.6273V10.1418H118.075V12.9198H121.195V10.1418H122.006V16.6273H121.195V13.698H118.075V16.6273H117.275Z" fill="black"/>
<path d="M128.536 15.7841C128.236 16.0966 127.879 16.3445 127.487 16.5136C127.094 16.6827 126.673 16.7697 126.248 16.7697C125.824 16.7697 125.403 16.6827 125.01 16.5136C124.618 16.3445 124.261 16.0966 123.961 15.7841C123.366 15.1383 123.034 14.2787 123.034 13.3845C123.034 12.4904 123.366 11.6308 123.961 10.9849C124.26 10.6728 124.616 10.4252 125.008 10.2562C125.399 10.0873 125.819 10.0003 126.243 10.0003C126.667 10.0003 127.087 10.0873 127.479 10.2562C127.87 10.4252 128.226 10.6728 128.526 10.9849C129.116 11.6333 129.445 12.492 129.445 13.3845C129.445 14.2771 129.116 15.1358 128.526 15.7841H128.536ZM124.554 15.2437C124.772 15.4818 125.035 15.6701 125.327 15.7967C125.618 15.9232 125.932 15.9852 126.248 15.9787C126.564 15.9833 126.878 15.9204 127.169 15.794C127.461 15.6675 127.724 15.4802 127.943 15.2437C128.385 14.7335 128.63 14.0712 128.63 13.3845C128.63 12.6979 128.385 12.0356 127.943 11.5254C127.724 11.2888 127.461 11.1016 127.169 10.9751C126.878 10.8487 126.564 10.7858 126.248 10.7904C125.932 10.7839 125.618 10.8459 125.327 10.9724C125.035 11.0989 124.772 11.2873 124.554 11.5254C124.105 12.0322 123.856 12.6958 123.856 13.3845C123.856 14.0733 124.105 14.7369 124.554 15.2437Z" fill="black"/>
<path d="M132.726 16.6272V10.1418H134.983C135.45 10.1369 135.903 10.3143 136.251 10.639C136.425 10.7958 136.563 10.9903 136.657 11.2088C136.75 11.4274 136.796 11.6646 136.792 11.9037C136.794 12.1949 136.715 12.4804 136.563 12.7252C136.41 12.9573 136.197 13.1406 135.95 13.2548C136.25 13.3615 136.514 13.5568 136.709 13.8169C136.9 14.0818 137.002 14.4045 137 14.7357C137.005 14.9848 136.958 15.2322 136.86 15.4601C136.763 15.688 136.619 15.8909 136.438 16.0544C136.077 16.4035 135.6 16.5933 135.107 16.584L132.726 16.6272ZM133.527 12.9197H134.983C135.119 12.9279 135.255 12.904 135.381 12.8497C135.507 12.7954 135.62 12.7122 135.71 12.6063C135.887 12.4267 135.988 12.1819 135.991 11.9253C136.001 11.6679 135.915 11.4164 135.752 11.2227C135.665 11.1219 135.557 11.0425 135.436 10.9902C135.316 10.9378 135.186 10.9139 135.055 10.9201H133.558L133.527 12.9197ZM133.527 15.8274H135.149C135.29 15.8323 135.43 15.8048 135.559 15.7469C135.689 15.6889 135.804 15.602 135.898 15.4923C136.077 15.2929 136.177 15.0303 136.178 14.7573C136.172 14.4865 136.068 14.228 135.887 14.0331C135.787 13.9237 135.666 13.8373 135.531 13.7796C135.397 13.7219 135.253 13.6941 135.107 13.698H133.527V15.8274Z" fill="black"/>
</g>
<defs>
<radialGradient id="paint0_radial_582_247" cx="0" cy="0" r="1" gradientUnits="userSpaceOnUse" gradientTransform="translate(110 27) rotate(43.0065) scale(140.922 515.661)">
<stop stop-color="white"/>
<stop offset="1" stop-color="white" stop-opacity="0.8"/>
</radialGradient>
<linearGradient id="paint1_linear_582_247" x1="201.29" y1="2.67092" x2="192.28" y2="73.8172" gradientUnits="userSpaceOnUse">
<stop stop-color="#00A0FF"/>
<stop offset="0.01" stop-color="#00A1FF"/>
<stop offset="0.26" stop-color="#00BEFF"/>
<stop offset="0.51" stop-color="#00D2FF"/>
<stop offset="0.76" stop-color="#00DFFF"/>
<stop offset="1" stop-color="#00E3FF"/>
</linearGradient>
<linearGradient id="paint2_linear_582_247" x1="236.906" y1="27" x2="-287.409" y2="27" gradientUnits="userSpaceOnUse">
<stop stop-color="#FFE000"/>
<stop offset="0.41" stop-color="#FFBD00"/>
<stop offset="0.78" stop-color="#FFA500"/>
<stop offset="1" stop-color="#FF9C00"/>
</linearGradient>
<linearGradient id="paint3_linear_582_247" x1="189.796" y1="9.6504" x2="134.601" y2="183.078" gradientUnits="userSpaceOnUse">
<stop stop-color="#FF3A44"/>
<stop offset="1" stop-color="#C31162"/>
</linearGradient>
<linearGradient id="paint4_linear_582_247" x1="-41.4149" y1="-29.1761" x2="-16.7768" y2="48.259" gradientUnits="userSpaceOnUse">
<stop stop-color="#32A071"/>
<stop offset="0.07" stop-color="#2DA771"/>
<stop offset="0.48" stop-color="#15CF74"/>
<stop offset="0.8" stop-color="#06E775"/>
<stop offset="1" stop-color="#00F076"/>
</linearGradient>
<clipPath id="clip0_582_247">
<rect width="220" height="54" rx="10" fill="white"/>
</clipPath>
</defs>
</svg>
