<svg width="28" height="28" viewBox="0 0 28 28" fill="none" xmlns="http://www.w3.org/2000/svg">
<path d="M0 14C0 6.26801 6.26801 0 14 0C21.732 0 28 6.26801 28 14C28 21.732 21.732 28 14 28C6.26801 28 0 21.732 0 14Z" fill="white"/>
<path d="M15.5141 17.1735L17.6063 19.1933C18.0349 19.6062 18.0349 20.2767 17.6063 20.69C17.1782 21.1033 16.4842 21.1033 16.0565 20.69L13.9994 18.7052L11.9441 20.69C11.7298 20.8965 11.449 20.9998 11.1682 20.9998C10.8878 20.9998 10.6075 20.8965 10.3932 20.69C9.96501 20.2767 9.96501 19.6066 10.3927 19.1933L12.4852 17.1735C11.7233 17.006 10.9886 16.7146 10.3119 16.3048C9.79975 15.993 9.64591 15.34 9.9686 14.8452C10.2904 14.3498 10.9671 14.2006 11.4802 14.5123C13.0123 15.4427 14.9861 15.4429 16.5191 14.5123C17.0322 14.2006 17.7087 14.3498 18.0311 14.8452C18.3538 15.3396 18.1995 15.993 17.6874 16.3048C17.0107 16.715 16.2759 17.006 15.5141 17.1735Z" fill="#DC3C68"/>
<path fill-rule="evenodd" clip-rule="evenodd" d="M10.248 10.6129C10.248 12.6046 11.9267 14.2248 13.9907 14.2248C16.0551 14.2248 17.7333 12.6046 17.7333 10.6129C17.7333 8.62056 16.0551 7 13.9907 7C11.9267 7 10.248 8.62056 10.248 10.6129ZM15.5403 10.6129C15.5403 9.78805 14.8452 9.1173 13.9907 9.1173C13.1368 9.1173 12.441 9.78805 12.441 10.6129C12.441 11.4371 13.1368 12.1083 13.9907 12.1083C14.8452 12.1083 15.5403 11.4371 15.5403 10.6129Z" fill="#DC3C68"/>
</svg>
