<svg width="327" height="50" viewBox="0 0 327 50" fill="none" xmlns="http://www.w3.org/2000/svg">
<path d="M0.291031 11.6437V38.4372H5.75884V32.9398H11.7065C13.431 32.8862 15.1097 32.3725 16.5682 31.452C18.3768 30.3994 19.8248 28.8261 20.7227 26.938C21.5813 25.2089 21.9315 23.2721 21.733 21.3524C21.6213 20.0143 21.2572 18.7095 20.6596 17.5067C19.7215 15.6011 18.2237 14.0265 16.3662 12.9928C14.8303 12.1037 13.0903 11.626 11.315 11.6058L0.291031 11.6437ZM5.75884 27.5054V17.1158H9.87548C10.684 17.0909 11.4927 17.1544 12.2874 17.305C13.2233 17.4894 14.0831 17.9475 14.7577 18.6211C15.4321 19.2946 15.891 20.1531 16.0757 21.0876C16.2327 21.7458 16.2556 22.4288 16.1427 23.096C16.0299 23.7632 15.7838 24.4008 15.4191 24.9711C15.0478 25.5563 14.5645 26.0626 13.9967 26.4607C13.429 26.8589 12.788 27.141 12.1106 27.2911C11.6529 27.3778 11.1873 27.4159 10.7215 27.4046L5.75884 27.5054Z" fill="white"/>
<path d="M124.814 38.8911C128.518 38.9897 132.109 37.6151 134.799 35.0696C137.487 32.5242 139.054 29.0163 139.153 25.3178C139.251 21.6193 137.875 18.0331 135.325 15.3481C132.776 12.6631 129.263 11.0993 125.559 11.0006H125.167C121.492 10.9661 117.95 12.3743 115.305 14.9219C113.342 16.8461 111.99 19.3048 111.418 21.9912C110.846 24.6777 111.079 27.4729 112.088 30.028C113.096 32.5832 114.836 34.785 117.091 36.359C119.345 37.9329 122.013 38.8092 124.763 38.8785L124.814 38.8911ZM119.257 19.0954C120.033 18.3263 120.956 17.7221 121.972 17.319C122.988 16.9159 124.074 16.7225 125.167 16.7502C127.337 16.7668 129.413 17.6411 130.94 19.1817C132.465 20.7224 133.319 22.8039 133.312 24.9711C133.292 27.1195 132.427 29.1739 130.903 30.6909C129.379 32.2077 127.319 33.0653 125.167 33.0785C123.546 33.066 121.964 32.5756 120.621 31.6692C119.277 30.7626 118.232 29.4802 117.616 27.9828C116.999 26.4852 116.839 24.8394 117.156 23.2517C117.473 21.6639 118.252 20.2049 119.396 19.0576" fill="white"/>
<path d="M166.245 11.6435V32.9397H160.058V11.6435H154.489V32.9397H148.301V11.6435H142.77V38.4371H171.751V14.304C171.744 13.9306 171.659 13.5626 171.504 13.223C171.348 12.8834 171.124 12.5794 170.846 12.3299C170.568 12.0804 170.241 11.8907 169.886 11.7726C169.531 11.6546 169.156 11.6106 168.784 11.6435H166.245Z" fill="white"/>
<path d="M96.0586 17.1663H109.797V11.6058H90.5276V38.4372H96.0586V17.1663Z" fill="white"/>
<path d="M76.0572 25.0218C76.3982 24.5931 76.7391 24.1265 76.8528 23.9499C77.95 22.2677 78.3698 20.2335 78.0278 18.2552C77.6858 16.2769 76.6076 14.5008 75.0091 13.283C73.0059 12.0709 70.6796 11.499 68.3417 11.6439H53.441V38.4374H68.3417C69.9833 38.4374 73.4938 37.8826 74.9839 36.7479C76.5823 35.53 77.6606 33.7539 78.0025 31.7756C78.3445 29.7973 77.9248 27.7631 76.8275 26.0809C76.7139 25.9044 76.3351 25.4126 76.032 25.0218H76.0572ZM58.9088 17.0908H69.9075C70.6367 17.0946 71.3351 17.3844 71.8522 17.8978C72.1836 18.2486 72.4073 18.687 72.4967 19.161C72.5863 19.6349 72.5378 20.1245 72.3569 20.5718C72.1762 21.019 71.8708 21.4051 71.4769 21.6843C71.083 21.9635 70.6173 22.124 70.1348 22.1469H58.9088V17.0908ZM71.8775 32.1331C71.6252 32.3924 71.3227 32.5977 70.9883 32.7365C70.654 32.8752 70.2948 32.9444 69.9328 32.94H58.934V27.8965H70.1601C70.6401 27.9214 71.103 28.0827 71.4945 28.3611C71.8859 28.6396 72.1896 29.0238 72.3699 29.4687C72.5503 29.9136 72.5996 30.4005 72.5125 30.8724C72.4252 31.3444 72.2049 31.7818 71.8775 32.1331Z" fill="white"/>
<path d="M24.9522 14.3039C24.9592 13.9293 25.0436 13.5602 25.2 13.2197C25.3564 12.8792 25.5815 12.5746 25.8612 12.3249C26.1409 12.0752 26.4693 11.8858 26.8256 11.7685C27.182 11.6513 27.5586 11.6087 27.9323 11.6435H30.4578V29.1443C30.4578 29.1443 43.2371 12.6269 44.1337 11.6435H49.4626V38.4369H43.9948V20.8604L30.4578 38.4369H24.9774L24.9522 14.3039Z" fill="white"/>
<path d="M234.856 15.1795V20.5385H236.373H237.89V15.1795V9.82051H241.88H245.87V25.0256V40.2308H241.855H237.839V34.5385V28.8462H236.347H234.856V34.5385V40.2309L230.821 40.2244L226.786 40.2179L226.78 25.0192L226.773 9.82051H230.815H234.856V15.1795Z" fill="white"/>
<path d="M262.481 13.4615V17.1154L259.109 17.1219L255.737 17.1284V18.9488V20.7692H258.81H261.882V24.5385V28.3077H258.81H255.737V30.2692V32.2308H259.116H262.494L262.488 36.2115L262.481 40.1923H255.151H247.821L247.814 24.9935L247.808 9.79479L255.145 9.80123L262.481 9.80769V13.4615Z" fill="white"/>
<path d="M272.113 21.0321L272.119 32.2692L274.509 32.2758L276.9 32.2823L276.893 36.263L276.887 40.2436L270.43 40.25L263.973 40.2565V25.0257V9.79487H268.039H272.106L272.113 21.0321Z" fill="white"/>
<path d="M287.079 21.0321L287.085 32.2692L289.469 32.2753L291.853 32.2813V36.2624V40.2436L285.396 40.25L278.939 40.2565V25.0257V9.79487H283.006H287.073L287.079 21.0321Z" fill="white"/>
<path fill-rule="evenodd" clip-rule="evenodd" d="M304.321 9.43877C305.583 9.52477 306.81 9.78918 307.891 10.2084C308.242 10.3443 308.958 10.7078 309.289 10.9177C310.921 11.9526 312.02 13.4971 312.505 15.4359C312.657 16.0448 312.729 16.5237 312.773 17.2179C312.807 17.7623 312.807 31.2883 312.773 31.9744C312.702 33.4119 312.479 34.5513 312.056 35.6447C311.394 37.3541 310.205 38.6732 308.594 39.4862C307.467 40.0546 306.261 40.3757 304.643 40.5377C303.765 40.6256 302.296 40.6195 301.384 40.5243C298.853 40.2601 296.976 39.4526 295.626 38.048C294.478 36.8526 293.774 35.2886 293.487 33.2949C293.468 33.1649 293.452 33.062 293.438 32.9588C293.356 32.3308 293.36 31.6909 293.351 24.8846C293.344 19.6691 293.35 17.4024 293.37 17.1026C293.572 14.0744 295.032 11.7849 297.558 10.5312C299.364 9.63479 301.688 9.25936 304.321 9.43877ZM301.94 17.2114C302.124 16.9654 302.424 16.7703 302.753 16.6821C302.939 16.632 303.34 16.631 303.532 16.6801C304.206 16.8531 304.65 17.4282 304.74 18.2449C304.777 18.572 304.777 30.4334 304.741 30.7564C304.676 31.3347 304.481 31.7567 304.121 32.0945C303.684 32.5065 303.034 32.6062 302.514 32.3413C302.048 32.1041 301.743 31.6704 301.597 31.0385C301.544 30.8082 301.544 30.7943 301.535 24.7179C301.53 20.6757 301.536 18.5289 301.553 18.333C301.596 17.8458 301.709 17.5187 301.94 17.2114Z" fill="white"/>
<path d="M323.303 19.9359V30.1282H319.287H315.272V19.9359V9.74359H319.287H323.303V19.9359Z" fill="white"/>
<path d="M320.146 32.203C321.241 32.4412 322.116 33.0222 322.772 33.9454C323.264 34.6385 323.531 35.4985 323.532 36.3974C323.533 37.4657 323.111 38.5217 322.368 39.3075C321.729 39.983 321.022 40.3707 320.065 40.5698C319.674 40.6513 318.95 40.6507 318.535 40.5687C316.883 40.2418 315.621 39.0535 315.197 37.4236C315.016 36.7271 315.03 35.9036 315.236 35.1856C315.688 33.6105 317.02 32.4337 318.653 32.167C318.991 32.1118 319.819 32.1318 320.146 32.203Z" fill="white"/>
<path d="M189.667 16.6666L206.333 33.3333" stroke="white" stroke-width="2" stroke-linecap="round" stroke-linejoin="round"/>
<path d="M206.333 16.6666L189.667 33.3333" stroke="white" stroke-width="2" stroke-linecap="round" stroke-linejoin="round"/>
</svg>
