<svg width="28" height="28" viewBox="0 0 28 28" fill="none" xmlns="http://www.w3.org/2000/svg">
<g clip-path="url(#clip0_106_23)">
<path d="M14 28C21.732 28 28 21.732 28 14C28 6.26801 21.732 0 14 0C6.26801 0 0 6.26801 0 14C0 21.732 6.26801 28 14 28Z" fill="white"/>
<path fill-rule="evenodd" clip-rule="evenodd" d="M6.33719 13.8522C10.4185 12.074 13.14 10.9018 14.5017 10.3354C18.3896 8.71827 19.1975 8.43735 19.7241 8.42808C19.8399 8.42604 20.0988 8.45474 20.2666 8.59085C20.4082 8.70577 20.4472 8.86102 20.4658 8.96998C20.4845 9.07895 20.5077 9.32716 20.4892 9.52112C20.2785 11.7348 19.3669 17.107 18.9031 19.5864C18.7069 20.6355 18.3204 20.9873 17.9463 21.0217C17.1333 21.0965 16.516 20.4844 15.7285 19.9683C14.4963 19.1605 13.8002 18.6577 12.6042 17.8696C11.222 16.9587 12.118 16.4581 12.9057 15.6399C13.1119 15.4258 16.694 12.1676 16.7633 11.872C16.772 11.835 16.7801 11.6972 16.6982 11.6245C16.6163 11.5517 16.4955 11.5766 16.4083 11.5964C16.2848 11.6244 14.3163 12.9255 10.5031 15.4995C9.94433 15.8832 9.43825 16.0701 8.98482 16.0603C8.48494 16.0495 7.52339 15.7777 6.80857 15.5454C5.93182 15.2604 5.235 15.1097 5.29568 14.6257C5.32728 14.3736 5.67445 14.1157 6.33719 13.8522Z" fill="#B34198"/>
</g>
<defs>
<clipPath id="clip0_106_23">
<rect width="28" height="28" fill="white"/>
</clipPath>
</defs>
</svg>
