<svg width="28" height="28" viewBox="0 0 28 28" fill="none" xmlns="http://www.w3.org/2000/svg">
<path d="M0 14C0 6.26801 6.26801 0 14 0C21.732 0 28 6.26801 28 14C28 21.732 21.732 28 14 28C6.26801 28 0 21.732 0 14Z" fill="black"/>
<path d="M21.1546 10.5427C20.9829 9.88299 20.4768 9.36346 19.8343 9.18714C18.6698 8.8667 14 8.8667 14 8.8667C14 8.8667 9.33019 8.8667 8.16564 9.18714C7.52308 9.36346 7.01705 9.88299 6.84531 10.5427C6.53333 11.7385 6.53333 14.2334 6.53333 14.2334C6.53333 14.2334 6.53333 16.7282 6.84531 17.924C7.01705 18.5837 7.52308 19.1033 8.16564 19.2797C9.33019 19.6 14 19.6 14 19.6C14 19.6 18.6698 19.6 19.8343 19.2797C20.4768 19.1033 20.9829 18.5837 21.1546 17.924C21.4667 16.7282 21.4667 14.2334 21.4667 14.2334C21.4667 14.2334 21.4667 11.7385 21.1546 10.5427Z" fill="white"/>
<path d="M12.6 16.8V12.1333L16.3333 14.4667L12.6 16.8Z" fill="black"/>
</svg>
