<svg width="28" height="28" viewBox="0 0 28 28" fill="none" xmlns="http://www.w3.org/2000/svg">
<path d="M0 14C0 6.26801 6.26801 0 14 0C21.732 0 28 6.26801 28 14C28 21.732 21.732 28 14 28C6.26801 28 0 21.732 0 14Z" fill="white"/>
<path d="M21.1546 10.5427C20.9829 9.88293 20.4768 9.3634 19.8343 9.18708C18.6698 8.86664 14 8.86664 14 8.86664C14 8.86664 9.33019 8.86664 8.16564 9.18708C7.52308 9.3634 7.01705 9.88293 6.84531 10.5427C6.53333 11.7384 6.53333 14.2333 6.53333 14.2333C6.53333 14.2333 6.53333 16.7281 6.84531 17.9239C7.01705 18.5837 7.52308 19.1032 8.16564 19.2796C9.33019 19.6 14 19.6 14 19.6C14 19.6 18.6698 19.6 19.8343 19.2796C20.4768 19.1032 20.9829 18.5837 21.1546 17.9239C21.4667 16.7281 21.4667 14.2333 21.4667 14.2333C21.4667 14.2333 21.4667 11.7384 21.1546 10.5427Z" fill="#BA3F99"/>
<path d="M12.6 16.8V12.1334L16.3333 14.4668L12.6 16.8Z" fill="white"/>
</svg>
