<svg width="28" height="28" viewBox="0 0 28 28" fill="none" xmlns="http://www.w3.org/2000/svg">
<g clip-path="url(#clip0_106_24)">
<path d="M0 14C0 6.268 6.268 0 14 0C21.732 0 28 6.268 28 14C28 21.732 21.732 28 14 28C6.268 28 0 21.732 0 14Z" fill="white"/>
<path fill-rule="evenodd" clip-rule="evenodd" d="M13.7167 0C13.6505 5.7597 13.2739 8.9831 11.1285 11.1285C8.9831 13.2739 5.7597 13.6505 0 13.7167V14.5526C5.7597 14.6187 8.9831 14.9953 11.1285 17.1407C13.2402 19.2524 13.6383 22.4086 13.7134 28H14.5559C14.6309 22.4086 15.0289 19.2524 17.1407 17.1407C19.2524 15.0289 22.4086 14.6309 28 14.5559V13.7133C22.4086 13.6383 19.2524 13.2402 17.1407 11.1285C14.9953 8.9831 14.6187 5.7597 14.5526 0H13.7167Z" fill="#B24298"/>
</g>
<defs>
<clipPath id="clip0_106_24">
<rect width="28" height="28" fill="white"/>
</clipPath>
</defs>
</svg>
